# xmcd CD database file
#
# Track frame offsets:
#        150
#        9847
#        32045
#        54307
#        70604
#        91429
#        108702
#        124037
#
# Disc length: 1928 seconds
#
# Revision: 0
# Processed by: cddbd v1.5.2PL0 Copyright (c) Steve Scherf et al.
# Submitted via: CUERipper 2.1.5
#
DISCID=5d078608
DTITLE=Sungha Jung - Andante
DYEAR=2018
DGENRE=
TTITLE0=Etude
TTITLE1=Kiss
TTITLE2=Wedding Bell
TTITLE3=Blue Day
TTITLE4=Andante
TTITLE5=Pit a Pat
TTITLE6=Nightly Night
TTITLE7=Vicent (Starry, Stasrry Night)
EXTD=
EXTT0=
EXTT1=
EXTT2=
EXTT3=
EXTT4=
EXTT5=
EXTT6=
EXTT7=
PLAYORDER=
